<?xml version="1.0" standalone="no"?>
<!DOCTYPE svg PUBLIC "-//W3C//DTD SVG 20010904//EN"
 "http://www.w3.org/TR/2001/REC-SVG-20010904/DTD/svg10.dtd">
<svg version="1.0" xmlns="http://www.w3.org/2000/svg"
 width="1748.000000pt" height="1240.000000pt" viewBox="0 0 1748.000000 1240.000000"
 preserveAspectRatio="xMidYMid meet">

<g transform="translate(0.000000,1240.000000) scale(0.100000,-0.100000)"
fill="#000000" stroke="none">
<path d="M8500 9353 c-754 -59 -1458 -383 -1995 -918 -437 -436 -745 -1009
-864 -1606 -46 -234 -55 -333 -56 -619 0 -290 8 -386 51 -612 214 -1120 1032
-2046 2120 -2401 1136 -371 2386 -72 3215 770 159 161 201 209 311 356 140
188 269 412 362 630 475 1113 277 2396 -510 3308 -535 619 -1252 994 -2073
1083 -130 15 -431 19 -561 9z m425 -593 c543 -44 1030 -245 1454 -600 319
-268 551 -583 722 -982 107 -251 169 -496 201 -800 l12 -118 213 0 213 0 0
-60 0 -60 -213 0 -214 0 -6 -112 c-21 -364 -132 -762 -303 -1085 -343 -647
-923 -1111 -1614 -1292 -444 -116 -869 -118 -1290 -5 -646 172 -1208 597
-1549 1170 -171 287 -295 624 -345 934 -13 83 -36 318 -36 371 0 18 -12 19
-215 19 l-215 0 0 60 0 60 214 0 215 0 5 43 c3 23 10 89 16 147 41 379 187
795 396 1120 231 362 586 692 956 889 438 234 918 338 1383 301z"/>
<path d="M8719 8361 c-20 -20 -29 -39 -29 -61 0 -40 47 -90 85 -90 38 0 85 50
85 90 0 40 -47 90 -85 90 -16 0 -38 -12 -56 -29z"/>
<path d="M9452 8120 c-178 -47 -319 -191 -367 -377 -59 -226 62 -471 289 -583
81 -41 92 -44 190 -48 125 -5 208 15 301 76 152 98 235 252 235 438 0 235
-158 439 -385 499 -78 20 -174 18 -263 -5z m340 -165 c55 -39 57 -51 11 -60
-49 -8 -111 -44 -247 -139 -103 -72 -131 -84 -148 -61 -5 6 -8 5 -8 -2 0 -7
-5 -13 -11 -13 -7 0 -9 10 -7 25 3 13 1 22 -3 19 -5 -3 -9 -11 -9 -18 0 -8 -8
-20 -17 -27 -18 -15 -18 -16 3 36 3 8 1 15 -6 15 -6 0 -9 -4 -6 -9 3 -5 -1
-14 -8 -20 -16 -14 -29 0 -21 21 8 21 -24 46 -34 29 -6 -9 -10 -7 -14 8 -4 16
0 21 14 21 45 0 130 44 200 104 115 99 133 108 206 104 50 -3 71 -10 105 -33z
m147 -207 c21 -70 23 -98 8 -98 -9 0 -35 -9 -60 -19 -44 -19 -44 -19 -68 2
-22 21 -22 21 -6 1 16 -20 16 -22 -5 -40 -12 -10 -18 -13 -13 -5 5 9 4 12 -3
7 -5 -3 -13 0 -16 6 -3 7 -3 3 0 -9 4 -18 1 -23 -14 -23 -11 0 -22 -5 -24 -12
-3 -7 -9 -8 -18 -3 -8 5 -23 10 -32 10 -23 2 -34 13 -23 23 4 4 10 1 12 -6 4
-9 8 -10 18 -2 9 8 15 8 20 0 9 -15 25 -12 25 4 0 18 -25 27 -38 14 -8 -8 -18
-6 -36 6 -31 20 -42 21 -26 1 10 -12 10 -15 -1 -15 -8 0 -21 5 -29 10 -18 12
3 31 111 106 72 50 127 73 176 74 27 0 33 -5 42 -32z m-639 -58 c0 -5 -4 -10
-10 -10 -5 0 -10 5 -10 10 0 6 5 10 10 10 6 0 10 -4 10 -10z m317 -117 c-7 -6
-46 10 -41 18 3 5 14 3 24 -3 11 -7 18 -13 17 -15z"/>
<path d="M8037 8120 c-84 -26 -148 -124 -148 -224 0 -93 43 -164 126 -205 104
-52 239 -14 300 83 27 45 30 58 30 131 0 74 -3 86 -30 125 -47 68 -93 92 -178
96 -40 2 -85 -1 -100 -6z"/>
<path d="M7261 7698 c-259 -309 -387 -696 -366 -1113 4 -82 8 -170 9 -194 l1
-44 -93 -37 c-51 -21 -95 -40 -99 -43 -3 -3 220 -5 495 -4 495 2 501 2 510 22
9 19 27 23 178 38 305 31 513 39 974 39 596 0 1001 -22 1330 -74 97 -15 193
-22 340 -24 l205 -3 -121 58 c-180 87 -470 243 -627 338 l-139 83 -31 -22
c-18 -12 -85 -60 -149 -106 l-117 -83 -69 53 c-62 48 -369 294 -517 415 -33
26 -112 89 -175 138 -63 50 -137 109 -163 133 -33 29 -53 40 -60 34 -7 -5 -86
-69 -176 -143 -185 -151 -214 -174 -463 -376 -151 -123 -178 -141 -178 -121 0
62 -22 262 -36 332 -23 113 -98 328 -146 416 -73 134 -232 350 -257 350 -4 0
-31 -28 -60 -62z m120 -274 c57 -84 121 -226 154 -339 43 -149 58 -290 52
-475 -4 -91 -9 -177 -13 -192 -7 -31 -42 -41 -79 -22 -14 7 -27 9 -30 3 -4 -5
-14 -5 -26 1 -15 9 -19 7 -20 -7 0 -16 -1 -16 -9 2 -5 11 -9 100 -9 198 -1
137 -4 185 -16 207 -29 56 -112 46 -135 -16 -6 -14 -10 -97 -10 -185 0 -120
-3 -159 -12 -160 -10 0 -10 -2 0 -6 6 -2 12 -11 12 -19 0 -9 -4 -12 -10 -9 -5
3 -10 0 -10 -7 0 -9 -3 -9 -10 2 -8 12 -10 12 -11 -5 0 -15 -2 -16 -7 -5 -9
19 -34 23 -76 12 l-34 -10 -13 67 c-18 96 -16 356 4 471 29 163 95 342 173
473 45 76 64 99 78 94 6 -2 32 -35 57 -73z m1586 -712 l278 -187 -215 -3
c-189 -2 -216 0 -227 14 -10 13 -125 301 -147 367 -8 24 -9 25 311 -191z"/>
<path d="M7266 7028 c-35 -49 -7 -108 50 -108 62 0 94 58 58 108 -11 16 -25
22 -54 22 -29 0 -43 -6 -54 -22z"/>
<path d="M10403 7079 c-61 -30 -96 -87 -100 -163 -5 -75 21 -125 85 -170 108
-76 266 -4 288 130 24 152 -136 271 -273 203z"/>
<path d="M6409 6118 c-34 -21 -35 -37 -19 -242 18 -212 59 -388 142 -594 356
-889 1149 -1464 2091 -1515 83 -5 87 -4 91 17 2 11 11 70 20 130 20 133 60
256 131 401 160 327 405 596 850 932 232 175 377 333 426 462 35 92 37 248 4
333 -5 13 4 18 46 27 63 14 66 12 110 -77 77 -157 40 -357 -104 -547 -43 -57
-195 -211 -336 -341 -265 -243 -437 -457 -555 -692 -50 -100 -112 -258 -135
-345 -20 -78 -48 -264 -40 -271 6 -7 192 37 314 73 484 144 916 464 1232 911
268 379 423 837 423 1246 l0 74 -37 17 c-35 16 -195 17 -2332 18 -2171 0
-2295 -1 -2322 -17z m4257 -22 c32 -12 68 -26 78 -30 10 -3 16 -9 13 -12 -5
-5 -249 -53 -273 -54 -10 0 -48 80 -40 87 2 2 36 10 77 17 41 7 77 14 80 15 3
0 32 -10 65 -23z m-1171 -31 c-22 -7 -119 -38 -216 -69 l-177 -56 -465 0 -465
0 -5 23 c-3 12 -9 43 -12 70 l-7 47 693 -1 c587 0 688 -3 654 -14z m-2822 -31
c78 -18 175 -52 240 -85 158 -80 317 -266 317 -372 0 -10 -4 -16 -9 -12 -5 3
-13 1 -16 -5 -4 -6 -1 -9 5 -8 18 4 20 -30 3 -36 -11 -4 -13 -2 -9 9 4 11 -1
15 -20 15 -17 0 -23 -4 -18 -12 4 -8 3 -10 -2 -5 -5 5 -49 46 -99 92 -131 121
-214 185 -241 185 -34 0 -64 -34 -64 -73 0 -44 -40 -62 -118 -53 -31 4 -58 9
-61 11 -12 12 -30 169 -30 263 l-1 102 26 0 c14 0 57 -7 97 -16z m1324 -41
c10 -48 10 -279 1 -314 -7 -24 -14 -27 -85 -37 -43 -6 -91 -14 -107 -18 l-30
-7 21 27 c35 44 39 83 12 112 -48 51 -67 38 -238 -159 -74 -86 -85 -95 -98
-81 -9 8 -22 13 -29 10 -22 -8 -29 16 -9 31 17 12 14 18 -7 14 -16 -2 -7 30
32 107 73 145 219 258 420 323 47 16 90 28 97 29 7 0 16 -17 20 -37z m2003
-34 c15 -63 9 -136 -20 -211 l-21 -58 -485 0 c-266 0 -484 2 -484 5 0 32 549
223 807 280 59 13 117 26 128 28 56 13 62 9 75 -44z m930 -65 c0 -60 -33 -241
-65 -357 -91 -333 -284 -659 -553 -935 -46 -47 -76 -71 -84 -66 -7 4 -10 3 -5
-1 4 -5 -9 -26 -30 -47 -39 -40 -56 -48 -47 -23 5 11 2 14 -12 8 -14 -4 -12 0
6 15 14 12 19 21 13 22 -7 0 -13 7 -13 15 0 20 -39 19 -61 -1 -10 -9 -15 -22
-13 -29 3 -7 0 -16 -7 -21 -7 -4 -10 -3 -5 4 3 6 2 13 -4 17 -5 3 -10 -2 -10
-11 0 -25 -13 -8 -16 21 -1 14 2 25 7 25 5 0 9 -4 9 -10 0 -5 4 -10 9 -10 6 0
9 8 8 19 -1 16 -8 18 -57 14 -30 -2 -61 -6 -67 -8 -12 -4 -18 8 -14 28 1 5 -4
7 -11 4 -7 -2 -12 -9 -11 -14 1 -5 -11 -7 -28 -5 -16 2 -29 9 -29 14 0 6 -7 4
-17 -3 -13 -11 -17 -11 -21 -1 -3 9 -8 10 -17 2 -10 -8 -14 -4 -19 16 -6 24
-8 25 -25 10 -10 -9 -22 -16 -28 -16 -6 0 -14 -6 -17 -12 -3 -7 -3 -3 0 10 3
13 7 38 8 57 4 39 -11 40 -51 4 l-27 -24 26 35 c14 19 31 36 37 36 6 1 14 3
19 4 4 1 9 2 12 2 3 0 6 8 6 19 0 19 -1 18 -18 -3 -10 -13 -18 -17 -18 -11 0
13 186 203 451 458 250 241 333 389 364 646 l6 46 192 40 c238 50 227 49 227
17z m-2702 -123 c-1 -25 -7 -42 -20 -50 -16 -10 -18 -8 -18 16 0 16 -3 38 -6
51 -5 19 -2 22 20 22 24 0 26 -3 24 -39z m381 3 c6 4 11 2 11 -5 0 -7 -9 -9
-22 -6 -12 4 -28 1 -35 -5 -7 -6 -13 -7 -13 -3 0 15 35 34 41 23 4 -6 12 -7
18 -4z m-302 -10 c-3 -3 -12 -4 -19 -1 -8 3 -5 6 6 6 11 1 17 -2 13 -5z
m-1332 -291 c127 -145 219 -303 254 -437 27 -104 27 -126 0 -126 -18 0 -19 -2
-9 -15 9 -10 9 -15 1 -15 -6 0 -11 5 -11 11 0 6 -7 8 -16 5 -15 -6 -15 -4 -3
10 12 15 10 16 -21 10 -35 -7 -35 -7 -10 8 25 15 24 15 -12 9 -25 -4 -38 -2
-38 6 0 6 6 11 13 12 10 0 10 2 0 6 -7 2 -13 20 -13 39 0 41 -22 89 -45 98
-59 22 -115 -16 -115 -78 0 -24 -3 -27 -10 -16 -8 12 -10 12 -10 1 0 -11 -4
-11 -19 3 -10 9 -25 14 -34 10 -12 -4 -24 10 -47 56 -29 57 -31 68 -25 124 15
126 83 336 109 336 6 0 33 -26 61 -57z m2764 2 c-29 -24 -69 -56 -88 -70 l-37
-25 -472 0 -473 -1 -52 46 c-28 25 -54 45 -57 45 -3 0 -27 -22 -55 -47 l-50
-48 -125 4 c-69 1 -125 4 -125 4 0 1 1 32 3 70 l4 67 790 0 790 0 -53 -45z
m-1699 -19 c0 -77 -28 -188 -69 -271 -41 -84 -113 -171 -132 -159 -8 4 -7 9 2
16 12 8 12 9 0 6 -8 -2 -16 -15 -18 -28 -4 -25 -19 -40 -40 -40 -16 0 -17 16
-3 25 16 10 1 25 -18 19 -16 -5 -16 -5 1 6 17 11 25 36 8 25 -22 -13 -28 28
-10 60 20 34 18 56 -9 88 -25 28 -82 21 -206 -28 -64 -25 -118 -45 -121 -45
-3 0 7 24 21 53 40 78 134 165 239 219 117 60 193 82 343 97 8 1 12 -14 12
-43z m594 -287 c86 -93 149 -182 192 -272 19 -39 39 -80 44 -89 14 -25 13 -27
-10 -21 -14 4 -20 0 -20 -11 0 -19 -44 -22 -87 -5 -22 8 -30 7 -39 -5 -18 -26
-24 -19 -24 29 0 61 -17 92 -56 105 -26 9 -39 8 -62 -4 -36 -18 -42 -33 -42
-97 0 -42 -3 -49 -20 -49 -12 0 -20 7 -20 18 0 14 -2 15 -10 2 -6 -10 -6 -16
0 -18 19 -7 10 -17 -15 -18 -27 -2 -31 6 -13 24 9 9 9 12 1 12 -7 0 -15 -4
-18 -10 -9 -15 -36 -12 -56 6 -16 15 -17 14 -11 -8 5 -22 5 -22 -12 -5 -10 9
-24 17 -32 17 -23 0 -26 21 -10 97 15 72 48 135 114 223 40 53 124 147 134
149 3 1 36 -31 72 -70z m221 61 c-27 -12 -43 -12 -25 0 8 5 22 9 30 9 10 0 8
-3 -5 -9z m-1135 -164 c0 -3 -4 -8 -10 -11 -5 -3 -10 -1 -10 4 0 6 5 11 10 11
6 0 10 -2 10 -4z m-560 -186 c0 -5 -4 -10 -10 -10 -5 0 -10 5 -10 10 0 6 5 10
10 10 6 0 10 -4 10 -10z m40 -24 c0 -3 -4 -8 -10 -11 -5 -3 -10 -1 -10 4 0 6
5 11 10 11 6 0 10 -2 10 -4z m50 0 c0 -2 -7 -6 -15 -10 -8 -3 -15 -1 -15 4 0
6 7 10 15 10 8 0 15 -2 15 -4z m877 -32 c9 -23 -51 -193 -103 -294 -66 -129
-158 -214 -306 -283 -62 -29 -72 -32 -63 -17 3 5 0 7 -7 5 -7 -3 -38 10 -68
29 l-54 34 49 29 c112 65 254 163 269 184 21 30 20 67 -1 91 -29 32 -70 22
-167 -41 -125 -81 -273 -164 -285 -159 -5 2 -1 26 10 57 86 245 305 374 642
380 63 1 79 -2 84 -15z m747 -64 c-22 -9 -29 -6 -20 9 4 6 14 7 23 4 15 -6 14
-7 -3 -13z m-444 -30 c0 -5 -7 -10 -16 -10 -8 0 -12 5 -9 10 3 6 10 10 16 10
5 0 9 -4 9 -10z m90 0 c0 -5 -4 -10 -10 -10 -5 0 -10 5 -10 10 0 6 5 10 10 10
6 0 10 -4 10 -10z m0 -30 c0 -5 -4 -10 -10 -10 -5 0 -10 5 -10 10 0 6 5 10 10
10 6 0 10 -4 10 -10z m1164 -72 c-5 -7 -9 -17 -9 -22 0 -5 -6 -11 -14 -14 -10
-3 -9 4 5 26 10 17 20 30 22 27 2 -2 0 -10 -4 -17z m425 -129 c-19 -12 -24 -2
-8 17 9 11 14 13 17 4 3 -7 -2 -16 -9 -21z m11 -54 c19 -23 8 -25 -14 -4 -11
11 -15 19 -9 19 6 0 16 -7 23 -15z m-15 -33 c-3 -3 -11 0 -18 7 -9 10 -8 11 6
5 10 -3 15 -9 12 -12z"/>
<path d="M7480 5530 c0 -5 5 -10 10 -10 6 0 10 5 10 10 0 6 -4 10 -10 10 -5 0
-10 -4 -10 -10z"/>
<path d="M10621 5658 c-13 -7 -33 -25 -44 -40 -18 -24 -19 -32 -8 -67 6 -23
20 -45 31 -51 24 -13 76 -13 101 0 27 15 51 65 43 94 -13 53 -79 87 -123 64z"/>
<path d="M10393 5246 c-23 -20 -28 -32 -28 -71 0 -37 5 -51 24 -66 57 -46 151
0 151 74 0 27 -7 41 -31 61 -38 33 -79 33 -116 2z"/>
<path d="M10256 4988 c-22 -30 -20 -60 4 -86 47 -50 118 -8 111 65 -4 44 -88
59 -115 21z"/>
<path d="M10084 4783 c-40 -7 -59 -40 -60 -105 -2 -82 4 -102 23 -86 9 7 30
11 49 9 18 -1 43 1 55 4 25 8 58 77 52 110 -9 45 -66 78 -119 68z"/>
<path d="M9775 4650 c-3 -5 -1 -10 4 -10 6 0 11 5 11 10 0 6 -2 10 -4 10 -3 0
-8 -4 -11 -10z"/>
<path d="M10000 4651 c0 -5 5 -13 10 -16 6 -3 10 -2 10 4 0 5 -4 13 -10 16 -5
3 -10 2 -10 -4z"/>
<path d="M9716 4614 c-8 -20 -8 -24 2 -24 4 0 8 9 9 20 2 24 -3 26 -11 4z"/>
<path d="M10002 4600 c0 -14 2 -19 5 -12 2 6 2 18 0 25 -3 6 -5 1 -5 -13z"/>
</g>
</svg>
